<svg xmlns="http://www.w3.org/2000/svg" width="16" height="16"><path fill="#FFF" d="M5.406 8.616c.403.771.982 1.356 1.666 1.841.198.14.418.251.636.359.19.094.391.083.588.002.494-.203.901-.534 1.285-.893.403-.376.756-.793 1.008-1.304.228.109.44.228.664.316.515.201 1.029.411 1.557.574 1.212.374 1.865 1.221 2.117 2.422.078.372.148.747.192 1.125.075.651-.142 1.188-.699 1.556-.568.375-1.206.593-1.854.782-.899.262-1.817.419-2.749.511a18.12 18.12 0 01-2.946.059c-1.496-.096-2.969-.33-4.37-.892a5.618 5.618 0 01-.923-.465c-.556-.354-.787-.894-.695-1.535.081-.569.189-1.14.355-1.689.26-.859.83-1.456 1.686-1.77.689-.253 1.371-.519 2.053-.785.143-.055.275-.137.429-.214zM4.325 4.037c-.017.163-.026.337.01.494.091.396.258.744.696.876.048.015.095.098.108.158.25 1.144.884 2.019 1.864 2.642.552.351 1.141.442 1.747.132 1.064-.545 1.723-1.424 2.061-2.553.062-.207.071-.421.346-.456.042-.005.081-.048.118-.079.384-.32.552-1.044.32-1.489a.73.73 0 00-.332-.293c-.121-.055-.15-.106-.155-.23a14.751 14.751 0 00-.082-1.209C10.923 1.188 10.45.635 9.665.325 8.743-.042 7.802-.082 6.843.124c-.475.102-.869.325-1.069.802-.017.042-.074.081-.12.094a.785.785 0 00-.528.474 3.235 3.235 0 00-.218.821c-.037.358-.009.723-.009 1.105-.381.043-.54.282-.574.617z"/></svg>