<?xml version="1.0" encoding="utf-8"?>
<!-- Generator: Adobe Illustrator 17.1.0, SVG Export Plug-In . SVG Version: 6.00 Build 0)  -->
<!DOCTYPE svg PUBLIC "-//W3C//DTD SVG 1.1//EN" "http://www.w3.org/Graphics/SVG/1.1/DTD/svg11.dtd">
<svg version="1.1" id="Layer_1" xmlns="http://www.w3.org/2000/svg" xmlns:xlink="http://www.w3.org/1999/xlink" x="0px" y="0px"
	 width="16px" height="16px" viewBox="0 0 16 16" enable-background="new 0 0 16 16" xml:space="preserve">
<path fill="#FFFFFF" d="M5.406,8.616c0.403,0.771,0.982,1.356,1.666,1.841c0.198,0.14,0.418,0.251,0.636,0.359
	c0.19,0.094,0.391,0.083,0.588,0.002c0.494-0.203,0.901-0.534,1.285-0.893c0.403-0.376,0.756-0.793,1.008-1.304
	c0.228,0.109,0.44,0.228,0.664,0.316c0.515,0.201,1.029,0.411,1.557,0.574c1.212,0.374,1.865,1.221,2.117,2.422
	c0.078,0.372,0.148,0.747,0.192,1.125c0.075,0.651-0.142,1.188-0.699,1.556c-0.568,0.375-1.206,0.593-1.854,0.782
	c-0.899,0.262-1.817,0.419-2.749,0.511c-0.981,0.097-1.964,0.122-2.946,0.059c-1.496-0.096-2.969-0.33-4.37-0.892
	c-0.319-0.128-0.634-0.281-0.923-0.465c-0.556-0.354-0.787-0.894-0.695-1.535c0.081-0.569,0.189-1.14,0.355-1.689
	c0.26-0.859,0.83-1.456,1.686-1.77C3.613,9.362,4.295,9.096,4.977,8.83C5.12,8.775,5.252,8.693,5.406,8.616z M4.325,4.037
	C4.308,4.2,4.299,4.374,4.335,4.531c0.091,0.396,0.258,0.744,0.696,0.876c0.048,0.015,0.095,0.098,0.108,0.158
	c0.25,1.144,0.884,2.019,1.864,2.642c0.552,0.351,1.141,0.442,1.747,0.132c1.064-0.545,1.723-1.424,2.061-2.553
	c0.062-0.207,0.071-0.421,0.346-0.456c0.042-0.005,0.081-0.048,0.118-0.079c0.384-0.32,0.552-1.044,0.32-1.489
	c-0.065-0.124-0.202-0.234-0.332-0.293c-0.121-0.055-0.15-0.106-0.155-0.23c-0.016-0.404-0.033-0.809-0.082-1.209
	c-0.103-0.842-0.576-1.395-1.361-1.705C8.743-0.042,7.802-0.082,6.843,0.124C6.368,0.226,5.974,0.449,5.774,0.926
	C5.757,0.968,5.7,1.007,5.654,1.02C5.401,1.095,5.217,1.261,5.126,1.494C5.024,1.757,4.937,2.036,4.908,2.315
	C4.871,2.673,4.899,3.038,4.899,3.42C4.518,3.463,4.359,3.702,4.325,4.037z"/>
</svg>
