<svg width="12" height="16" viewBox="0 0 12 16" fill="none" xmlns="http://www.w3.org/2000/svg">
<path fill-rule="evenodd" clip-rule="evenodd" d="M11.7023 5.85113C11.7023 7.09286 11.3155 8.24425 10.6558 9.19138H10.6574L6.55585 15.614C6.22713 16.1288 5.47532 16.1286 5.14676 15.6138L1.0647 9.21738C0.393928 8.26536 0 7.10425 0 5.85113C0 2.61964 2.61964 0 5.85113 0C9.08263 0 11.7023 2.61964 11.7023 5.85113ZM5.85113 9.19464C7.6977 9.19464 9.19464 7.6977 9.19464 5.85113C9.19464 4.00457 7.6977 2.50763 5.85113 2.50763C4.00457 2.50763 2.50763 4.00457 2.50763 5.85113C2.50763 7.6977 4.00457 9.19464 5.85113 9.19464Z" fill="white"/>
</svg>
